HIERARCHY
ROOT root
{
  OFFSET 0.000000 0.000000 0.000000
  CHANNELS 6 Xposition Yposition Zposition Zrotation Yrotation Xrotation
  JOINT lhipjoint
  {
    OFFSET 0.000000 0.000000 0.000000
    CHANNELS 3 Zrotation Yrotation Xrotation
    JOINT lfemur
    {
      OFFSET 0.102897 -0.089377 0.049154
      CHANNELS 3 Zrotation Yrotation Xrotation
      JOINT ltibia
      {
        OFFSET 0.137606 -0.378070 0.000000
        CHANNELS 3 Zrotation Yrotation Xrotation
        JOINT lfoot
        {
          OFFSET 0.146354 -0.402104 0.000000
          CHANNELS 3 Zrotation Yrotation Xrotation
          JOINT ltoes
          {
            OFFSET 0.008214 -0.022567 0.120317
            CHANNELS 3 Zrotation Yrotation Xrotation
            End Site
            {
              OFFSET 0.000000 -0.000000 0.061765
            }
          }
        }
      }
    }
  }
  JOINT rhipjoint
  {
    OFFSET 0.000000 0.000000 0.000000
    CHANNELS 3 Zrotation Yrotation Xrotation
    JOINT rfemur
    {
      OFFSET -0.100036 -0.089377 0.049154
      CHANNELS 3 Zrotation Yrotation Xrotation
      JOINT rtibia
      {
        OFFSET -0.141508 -0.388790 0.000000
        CHANNELS 3 Zrotation Yrotation Xrotation
        JOINT rfoot
        {
          OFFSET -0.147670 -0.405720 0.000000
          CHANNELS 3 Zrotation Yrotation Xrotation
          JOINT rtoes
          {
            OFFSET -0.008574 -0.023557 0.121905
            CHANNELS 3 Zrotation Yrotation Xrotation
            End Site
            {
              OFFSET -0.000000 -0.000000 0.062608
            }
          }
        }
      }
    }
  }
  JOINT lowerback
  {
    OFFSET 0.000000 0.000000 0.000000
    CHANNELS 3 Zrotation Yrotation Xrotation
    JOINT upperback
    {
      OFFSET -0.002033 0.119901 -0.017074
      CHANNELS 3 Zrotation Yrotation Xrotation
      JOINT thorax
      {
        OFFSET 0.001534 0.118558 0.007288
        CHANNELS 3 Zrotation Yrotation Xrotation
        JOINT lowerneck
        {
          OFFSET 0.002175 0.121761 0.016192
          CHANNELS 3 Zrotation Yrotation Xrotation
          JOINT upperneck
          {
            OFFSET -0.003596 0.106486 0.006549
            CHANNELS 3 Zrotation Yrotation Xrotation
            JOINT head
            {
              OFFSET 0.004633 0.105979 -0.006494
              CHANNELS 3 Zrotation Yrotation Xrotation
              End Site
              {
                OFFSET 0.001909 0.108988 -0.003095
              }
            }
          }
        }
        JOINT lclavicle
        {
          OFFSET 0.002175 0.121761 0.016192
          CHANNELS 3 Zrotation Yrotation Xrotation
          JOINT lhumerus
          {
            OFFSET 0.186776 0.079223 0.011377
            CHANNELS 3 Zrotation Yrotation Xrotation
            JOINT lradius
            {
              OFFSET 0.306663 -0.000000 0.000000
              CHANNELS 3 Zrotation Yrotation Xrotation
              JOINT lwrist
              {
                OFFSET 0.178328 -0.000000 0.000000
                CHANNELS 3 Zrotation Yrotation Xrotation
                End Site
                {
                  OFFSET 0.089164 -0.000000 0.000000
                }
              }
            }
          }
        }
        JOINT rclavicle
        {
          OFFSET 0.002175 0.121761 0.016192
          CHANNELS 3 Zrotation Yrotation Xrotation
          JOINT rhumerus
          {
            OFFSET -0.176641 0.090332 -0.000262
            CHANNELS 3 Zrotation Yrotation Xrotation
            JOINT rradius
            {
              OFFSET -0.301523 -0.000000 0.000000
              CHANNELS 3 Zrotation Yrotation Xrotation
              JOINT rwrist
              {
                OFFSET -0.180256 -0.000000 0.000000
                CHANNELS 3 Zrotation Yrotation Xrotation
                End Site
                {
                  OFFSET -0.090128 -0.000000 0.000000
                }
              }
            }
          }
        }
      }
    }
  }
}
MOTION
Frames: 15
Frame Time: 0.04166667
0.00000 0.80563 0.00000 0.36100 25.30300 3.77800 0.00000 -0.00000 0.00000 -3.96780 -8.69985 -12.89926 11.94906 18.36903 65.82728 2.13437 13.97634 -35.49432 0.86319 -5.92438 -16.56516 0.00000 -0.00000 0.00000 -2.87343 -1.15280 -54.46546 -14.28025 -19.19684 73.05856 -0.61396 11.49125 -15.06560 -4.65127 -12.97998 39.29357 -5.52647 2.41230 14.26750 1.88554 2.44518 -0.37477 4.63500 1.47933 -8.76228 -17.60120 -16.84850 7.38545 17.05400 -24.38960 3.41916 6.68381 -12.41200 4.10504 0.00000 0.00000 0.00000 -75.29305 33.79139 54.19206 87.40533 -59.97455 -57.75314 0.00000 -0.00000 -46.80560 0.00000 0.00000 0.00000 45.66449 44.97997 -0.21220 -107.16114 58.85743 -74.80496 -0.00000 0.00000 -71.36680
0.00000 0.80263 0.00000 -0.74700 23.76740 3.10100 0.00000 -0.00000 0.00000 -4.42887 -12.59623 -14.68675 13.76606 19.04155 71.48877 1.91003 13.87433 -34.17830 0.74415 -5.51043 -15.37032 0.00000 -0.00000 0.00000 -3.37899 1.47744 -54.35546 -13.57652 -18.98053 70.90691 -0.40932 11.39804 -13.00080 -4.75377 -13.10103 39.74783 -4.96663 2.10775 14.97000 2.73283 2.18377 0.14252 5.28965 1.33490 -8.57514 -17.69510 -16.97560 7.45673 17.55130 -24.61300 3.44780 6.80936 -12.52410 4.22009 -0.00000 -0.00000 0.00000 -74.50240 33.19338 57.32799 87.66317 -59.97936 -57.97639 0.00000 -0.00000 -48.72680 -0.00000 -0.00000 0.00000 39.28108 49.06228 -2.00346 -103.48236 59.30189 -71.64869 -0.00000 0.00000 -71.24320
0.00000 0.80045 0.00000 -1.36300 20.99740 2.74200 0.00000 -0.00000 0.00000 -6.38602 -14.58346 -16.31412 14.94700 19.37649 75.07700 1.77620 15.18581 -34.49696 0.79678 -5.69753 -15.90930 0.00000 -0.00000 0.00000 -4.34171 5.05845 -53.26847 -11.99229 -18.38739 65.96438 -0.37978 10.08838 -12.18685 -5.05650 -13.44714 41.06620 -4.58258 1.99328 16.12050 3.41950 2.11905 0.69898 5.82618 1.29362 -8.61989 -17.46390 -17.04990 7.39318 17.83680 -24.70430 3.48575 6.84425 -12.56100 4.26854 0.00000 -0.00000 0.00000 -73.49427 32.67600 60.81808 88.41850 -59.99055 -58.63043 0.00000 -0.00000 -51.39990 0.00000 -0.00000 0.00000 32.51084 53.25662 -4.57654 -99.34876 59.66716 -68.08721 -0.00000 0.00000 -70.46240
0.00000 0.80407 0.00000 -0.68500 16.25330 4.22800 0.00000 -0.00000 0.00000 -10.86794 -14.45580 -18.90407 15.25735 19.45195 76.01066 1.33595 19.35475 -35.90974 0.73794 -5.48790 -15.30554 0.00000 -0.00000 0.00000 -7.48723 9.49086 -54.25779 -9.85217 -17.32588 58.99312 0.06033 10.60514 -6.44377 -4.96961 -13.34949 40.69123 -4.39446 2.06362 17.66120 3.46667 2.19620 0.88850 5.74020 1.33502 -9.27984 -17.15780 -16.78340 6.72827 17.94450 -24.23110 3.49197 6.84439 -12.29150 4.27053 -0.00000 0.00000 0.00000 -72.99978 32.06484 62.74210 88.30497 -59.98914 -58.53212 0.00000 -0.00000 -53.72660 -0.00000 0.00000 0.00000 25.63348 57.85964 -7.06492 -95.80129 59.87245 -65.02191 -0.00000 0.00000 -69.90550
0.00000 0.81525 0.00000 0.03200 10.11940 6.89400 0.00000 -0.00000 0.00000 -15.31428 -15.84332 -22.02569 14.85919 19.35421 74.81221 1.24240 21.31199 -37.41554 0.75111 -5.53559 -15.44269 0.00000 -0.00000 0.00000 -11.81964 15.40479 -55.24360 -6.84619 -15.20099 48.29018 0.11022 5.94403 1.22163 -5.62090 -14.05063 43.44060 -3.67363 2.36200 20.67630 3.46460 2.65498 0.76165 5.16891 1.55980 -11.13670 -16.43610 -16.39570 5.25717 17.27930 -23.31460 2.70828 6.58376 -11.77740 3.94063 -0.00000 -0.00000 0.00000 -73.72311 31.29682 62.94869 87.62622 -59.97870 -57.94439 0.00000 -0.00000 -53.28810 -0.00000 -0.00000 0.00000 15.84705 62.58644 -12.00726 -90.90474 59.99691 -60.78352 -0.00000 0.00000 -67.84260
0.00000 0.81966 0.00000 0.40900 2.72675 10.26800 0.00000 -0.00000 0.00000 -17.16570 -20.00555 -26.33828 14.91096 19.36740 74.96835 2.16901 17.89209 -38.82542 1.18872 -6.91880 -19.47504 0.00000 -0.00000 0.00000 -13.96117 18.96389 -60.56165 -6.20938 -14.62823 45.81638 -0.05016 1.23166 -3.98034 -5.66975 -14.10048 43.64146 -3.29853 3.12482 24.72380 3.11276 3.61039 0.20224 4.16688 2.01416 -14.12240 -15.79440 -15.88230 3.08163 16.88440 -22.27880 2.64782 6.33605 -11.16420 3.97984 -0.00000 -0.00000 0.00000 -73.15542 31.82910 63.11316 89.33822 -59.99835 -59.42689 0.00000 -0.00000 -54.93810 -0.00000 -0.00000 0.00000 1.33351 66.01998 -21.35265 -84.48361 59.88470 -55.22452 -0.00000 0.00000 -68.53930
0.00000 0.81181 0.00000 0.35500 -3.23976 11.98600 0.00000 -0.00000 0.00000 -16.81700 -25.87795 -31.72494 16.20701 19.65151 78.84785 2.77109 13.73256 -38.57947 1.70232 -8.21638 -23.37325 0.00000 -0.00000 0.00000 -7.14862 14.99528 -69.29154 -10.82802 -17.84989 62.22181 -0.05972 -2.59773 -6.31942 -7.96099 -16.09049 52.42207 -1.48622 3.47265 30.42110 2.20262 4.35440 0.30814 1.42272 2.09042 -15.99880 -14.96210 -15.32190 1.47060 17.95120 -21.05450 -0.24640 6.65880 -10.54290 3.22626 -0.00000 -0.00000 0.00000 -69.90950 31.23844 64.57978 94.54583 -59.92177 -63.93577 0.00000 -0.00000 -56.73110 -0.00000 -0.00000 0.00000 -20.00948 66.75378 -39.01889 -78.05211 59.45367 -49.67181 -0.00000 0.00000 -68.24350
0.00000 0.79671 0.00000 1.45800 -7.06922 12.36400 0.00000 -0.00000 0.00000 -16.68702 -30.98550 -38.35120 17.84692 19.88849 83.69357 2.96019 10.97580 -37.72390 1.60046 -7.97893 -22.65009 0.00000 -0.00000 0.00000 -2.31864 11.78943 -75.57463 -19.00618 -19.97630 87.09317 -0.27780 -3.06711 -11.56932 -8.22068 -16.27919 53.35371 -0.01149 3.51360 37.08980 1.12360 4.67788 0.93155 -0.95417 1.97350 -17.90440 -14.67450 -14.91210 1.09846 18.06310 -20.14670 -3.02478 6.83846 -10.14740 2.31126 0.00000 -0.00000 0.00000 -66.63528 29.27909 68.18486 98.71569 -59.71101 -67.54068 0.00000 -0.00000 -58.09040 0.00000 -0.00000 0.00000 -35.71810 64.50463 -53.48338 -74.04951 59.01651 -46.23209 -0.00000 0.00000 -65.55760
0.00000 0.77814 0.00000 2.79800 -10.16410 14.49200 0.00000 -0.00000 0.00000 -16.12410 -33.18975 -46.46597 18.61642 19.95404 85.95170 3.24828 10.98360 -39.13681 1.13973 -6.77968 -19.06429 0.00000 -0.00000 0.00000 2.14722 8.26600 -80.00076 -25.78332 -19.17844 107.13486 -0.29797 -7.37809 -15.55538 -8.69083 -16.60460 55.01464 0.69359 3.85845 41.01690 0.62212 5.27699 1.23533 -2.30724 2.07295 -18.80090 -14.43890 -14.75080 0.29381 17.45150 -19.69340 -4.22237 6.66765 -9.91606 1.92493 -0.00000 -0.00000 0.00000 -66.89226 27.35969 70.30170 100.49307 -59.57984 -69.07445 0.00000 -0.00000 -53.06630 -0.00000 -0.00000 0.00000 -29.11897 65.59074 -50.97739 -87.23821 59.97116 -57.60845 -0.00000 0.00000 -65.25690
0.00000 0.76199 0.00000 3.68000 -13.01030 14.04400 0.00000 -0.00000 0.00000 -17.47575 -33.07812 -50.36270 19.17962 19.98386 87.60076 3.36697 12.03177 -40.31851 0.52135 -4.62754 -12.84921 0.00000 -0.00000 0.00000 6.50036 6.32097 -76.53315 -27.90899 -18.42885 113.72301 0.05200 -9.85930 -13.14380 -7.37037 -15.63601 50.26159 -0.54085 4.28739 45.36690 1.05045 5.17850 2.44831 -1.23501 2.09566 -18.88420 -14.10390 -13.64750 0.14062 17.25830 -18.06110 -5.47445 6.78754 -9.13044 1.28533 0.00000 -0.00000 0.00000 -71.50238 27.70414 68.34744 104.44383 -59.19684 -72.47499 0.00000 -0.00000 -47.14210 0.00000 -0.00000 0.00000 18.52183 67.03625 -9.41613 -104.90739 59.14341 -72.87304 -0.00000 0.00000 -53.72150
0.00000 0.74690 0.00000 3.54100 -17.96330 11.77900 0.00000 -0.00000 0.00000 -18.65182 -29.42033 -52.59419 20.29022 19.99798 90.84857 3.31913 12.72334 -40.51909 0.35913 -3.84986 -10.65466 0.00000 -0.00000 0.00000 9.47324 8.77340 -65.44343 -24.67222 -19.46837 103.77794 -0.63268 -16.24978 -28.28717 -7.35793 -15.62603 50.21539 -1.92201 6.23239 50.98440 1.23065 6.59554 2.39529 -1.08286 2.68056 -18.66500 -15.61600 -13.07840 0.60901 16.33570 -17.40770 -4.95693 6.80856 -8.77877 1.29338 0.00000 -0.00000 0.00000 -73.77568 27.19308 65.23282 100.67028 -59.56539 -69.22724 0.00000 -0.00000 -47.82160 0.00000 -0.00000 0.00000 60.08810 51.79955 19.45892 -57.93864 55.73515 -32.63161 -0.00000 0.00000 -31.87050
0.00000 0.73982 0.00000 2.99400 -20.26220 11.74300 0.00000 -0.00000 0.00000 -17.74974 -27.07940 -55.92980 20.88033 19.98141 92.57468 3.39967 11.66759 -40.25338 0.24599 -3.19156 -8.81251 0.00000 -0.00000 0.00000 10.20405 10.10838 -63.18470 -22.92093 -19.79420 98.56844 -1.79240 -17.68666 -36.75387 -8.26802 -16.31289 53.52242 -2.80185 7.06665 52.13100 1.86225 7.11967 2.93438 -0.23026 2.92499 -18.31670 -15.72700 -13.52030 1.94027 17.30540 -18.03010 -6.77081 7.22084 -9.18554 0.76434 -0.00000 -0.00000 0.00000 -73.35138 27.55565 63.74936 98.16178 -59.74678 -67.06230 0.00000 -0.00000 -52.90060 -0.00000 -0.00000 0.00000 70.98103 39.77178 0.15332 -13.84811 22.51716 -2.76968 -0.00000 0.00000 -57.18550
0.00000 0.75013 0.00000 0.59400 -20.93530 12.34500 0.00000 -0.00000 0.00000 -15.67359 -27.96275 -56.00186 20.43512 19.99546 91.27231 2.95912 12.71520 -38.81312 0.16921 -2.65000 -7.30581 0.00000 -0.00000 0.00000 12.43954 8.86069 -66.14675 -22.91953 -19.79440 98.56430 -1.23278 -14.33026 -30.47337 -7.51209 -15.74838 50.78556 -1.11607 5.96951 53.58900 2.91492 6.90082 3.13307 0.30574 2.71101 -18.31380 -15.86120 -14.06650 5.09819 19.85070 -18.64810 -12.38480 8.47380 -9.79810 -0.95697 0.00000 -0.00000 0.00000 -73.38637 29.13407 63.88774 100.10364 -59.61073 -68.73857 0.00000 -0.00000 -52.89480 0.00000 -0.00000 0.00000 74.94566 14.73363 -0.27521 -18.16422 28.36693 -4.62700 -0.00000 0.00000 -38.49290
0.00000 0.76954 0.00000 -2.32300 -25.64590 13.40300 0.00000 -0.00000 0.00000 -13.92069 -27.82753 -54.09527 19.35099 19.98990 88.10212 2.23336 15.89389 -37.50780 0.09472 -1.98487 -5.46383 0.00000 -0.00000 0.00000 14.41585 8.13829 -68.25985 -22.57101 -19.84077 97.53633 -0.92021 -6.21893 -21.40094 -3.48666 -11.44402 33.79241 -2.80446 4.99792 51.42460 2.75449 4.75056 3.35088 2.06224 1.97581 -17.73020 -15.50730 -13.43260 6.47085 20.31390 -18.03610 -10.66450 8.64680 -9.56013 -0.77321 -0.00000 -0.00000 0.00000 -75.15886 31.96087 60.98541 101.98776 -59.44997 -70.36253 0.00000 -0.00000 -55.97690 -0.00000 -0.00000 0.00000 77.36963 -2.61345 -1.02435 -30.16142 41.03135 -11.51544 -0.00000 0.00000 -60.92120
0.00000 0.79371 0.00000 -6.16600 -34.57360 14.10100 0.00000 -0.00000 0.00000 -13.52086 -23.98543 -49.67161 17.93400 19.89735 83.94948 1.66862 18.88774 -37.20897 0.00088 -0.19167 -0.52661 0.00000 -0.00000 0.00000 15.94582 7.63596 -70.60998 -22.50619 -19.84874 97.34537 0.01513 6.64350 -4.26265 -0.40273 4.07429 -11.28576 -5.33645 4.53433 47.26170 1.37009 2.72886 4.44021 2.91837 1.30574 -17.08960 -15.30100 -12.38490 6.25780 20.92250 -16.76100 -8.69062 8.79858 -8.91647 -0.35568 -0.00000 0.00000 0.00000 -75.44513 33.26707 58.57588 104.86195 -59.14873 -72.83404 0.00000 -0.00000 -59.43510 -0.00000 0.00000 0.00000 75.48788 -11.39425 -12.01279 -52.96164 54.12231 -28.55700 -0.00000 0.00000 -70.97520
